<?xml version="1.0" encoding="UTF-8" standalone="no"?><!DOCTYPE svg PUBLIC "-//W3C//DTD SVG 1.1//EN" "http://www.w3.org/Graphics/SVG/1.1/DTD/svg11.dtd"><svg width="100%" height="100%" viewBox="0 0 1317 955" version="1.1" xmlns="http://www.w3.org/2000/svg" xmlns:xlink="http://www.w3.org/1999/xlink" xml:space="preserve" xmlns:serif="http://www.serif.com/" style="fill-rule:evenodd;clip-rule:evenodd;stroke-linejoin:round;stroke-miterlimit:2;"><g><path d="M1183.86,267.874c-72.896,-197.465 -367.561,-270.85 -657.61,-163.776c-290.048,107.075 -466.348,354.322 -393.451,551.787c72.896,197.465 367.561,270.851 657.609,163.776c24.73,-9.129 48.989,-19.435 72.599,-30.841l246.515,110.483l-87.257,-213.104c148.237,-125.391 210.363,-286.219 161.595,-418.325Z" style="fill:#7061ff;"/><path d="M1183.86,267.874c-72.896,-197.465 -367.561,-270.85 -657.61,-163.776c-290.048,107.075 -466.348,354.322 -393.451,551.787c72.896,197.465 367.561,270.851 657.609,163.776c24.73,-9.129 48.989,-19.435 72.599,-30.841l246.515,110.483l-87.257,-213.104c148.237,-125.391 210.363,-286.219 161.595,-418.325Z" style="fill:#7061ff;"/><g transform="matrix(2.89117,-1.15557,1.48329,3.7111,2.70562,540.653)"><g transform="matrix(72,0,0,72,47.7418,74.4184)"><path d="M0.05,-0l-0,-0.745l0.216,-0c0.081,-0 0.138,0.005 0.171,0.017c0.034,0.011 0.062,0.037 0.085,0.079c0.023,0.042 0.035,0.092 0.035,0.152c0,0.074 -0.016,0.135 -0.049,0.183c-0.033,0.048 -0.074,0.072 -0.123,0.072c-0.035,-0 -0.072,-0.022 -0.111,-0.065l-0,0.307l-0.224,-0Zm0.228,-0.584l-0.004,0l-0,0.162l0.003,0l0.012,0.001c0.019,0 0.034,-0.007 0.044,-0.022c0.011,-0.015 0.016,-0.036 0.016,-0.063c0,-0.029 -0.005,-0.05 -0.015,-0.061c-0.011,-0.011 -0.029,-0.017 -0.056,-0.017Z" style="fill:#fff;fill-rule:nonzero;"/></g><g transform="matrix(51.4286,0,0,51.4286,88.5583,74.4184)"><path d="M0.05,-0l-0,-0.745l0.224,-0c0.078,-0 0.13,0.002 0.156,0.008c0.027,0.005 0.049,0.017 0.069,0.035c0.02,0.018 0.035,0.044 0.047,0.075c0.012,0.032 0.018,0.066 0.018,0.101c-0,0.075 -0.019,0.131 -0.057,0.169c0.055,0.091 0.088,0.21 0.098,0.357l-0.233,-0l0,-0.007c0,-0.087 -0.008,-0.154 -0.025,-0.2c-0.016,-0.046 -0.04,-0.069 -0.07,-0.069l-0.003,0l-0,0.276l-0.224,-0Zm0.228,-0.592l-0.004,0l-0,0.144l0.006,-0c0.022,-0 0.037,-0.006 0.047,-0.018c0.01,-0.012 0.015,-0.03 0.015,-0.056c-0,-0.047 -0.022,-0.07 -0.064,-0.07Z" style="fill:#fff;fill-rule:nonzero;"/></g><g transform="matrix(51.4286,0,0,51.4286,118.843,74.4184)"><path d="M0.299,-0.758c0.067,0 0.125,0.038 0.176,0.112c0.05,0.075 0.075,0.164 0.075,0.267c-0,0.116 -0.025,0.21 -0.074,0.282c-0.049,0.072 -0.113,0.108 -0.191,0.108c-0.066,0 -0.125,-0.035 -0.177,-0.105c-0.051,-0.07 -0.077,-0.168 -0.077,-0.294c-0,-0.062 0.011,-0.121 0.033,-0.177c0.022,-0.057 0.053,-0.103 0.092,-0.139c0.04,-0.036 0.087,-0.054 0.143,-0.054Zm-0.009,0.287c-0.014,-0 -0.026,0.007 -0.036,0.022c-0.01,0.015 -0.015,0.033 -0.015,0.056c-0,0.023 0.005,0.041 0.014,0.056c0.01,0.015 0.022,0.022 0.037,0.022c0.015,0 0.027,-0.007 0.037,-0.022c0.01,-0.014 0.015,-0.033 0.015,-0.056c-0,-0.023 -0.005,-0.041 -0.015,-0.056c-0.01,-0.015 -0.022,-0.022 -0.037,-0.022Z" style="fill:#fff;fill-rule:nonzero;"/></g><g transform="matrix(51.4286,0,0,51.4286,148.726,74.4184)"><path d="M0.274,-0l-0.224,-0l-0,-0.745l0.421,-0l0,0.187l-0.197,-0l-0,0.135l0.143,0l-0,0.187l-0.143,0l-0,0.236Z" style="fill:#fff;fill-rule:nonzero;"/></g><g transform="matrix(51.4286,0,0,51.4286,173.862,74.4184)"><path d="M0.471,-0l-0.421,-0l-0,-0.745l0.224,-0l-0,0.558l0.197,-0l0,0.187Z" style="fill:#fff;fill-rule:nonzero;"/></g><g transform="matrix(51.4286,0,0,51.4286,198.346,74.4184)"><rect x="0.051" y="-0.745" width="0.224" height="0.745" style="fill:#fff;fill-rule:nonzero;"/></g><g transform="matrix(51.4286,0,0,51.4286,215.121,74.4184)"><path d="M0.549,0.001l-0.003,-0l-0.184,0.008c-0.072,-0 -0.126,-0.009 -0.161,-0.027c-0.035,-0.017 -0.066,-0.046 -0.092,-0.085c-0.027,-0.04 -0.046,-0.083 -0.057,-0.13c-0.011,-0.047 -0.017,-0.095 -0.017,-0.145c0,-0.115 0.026,-0.206 0.079,-0.276c0.052,-0.069 0.12,-0.104 0.205,-0.104c0.039,0 0.081,0.009 0.124,0.027c0.044,0.018 0.083,0.042 0.119,0.074l-0.109,0.224c-0.043,-0.032 -0.083,-0.048 -0.121,-0.048c-0.026,0 -0.046,0.009 -0.062,0.028c-0.016,0.018 -0.024,0.043 -0.024,0.073c0,0.064 0.025,0.096 0.074,0.096l0.005,-0l0,-0.117l0.224,0l-0,0.402Z" style="fill:#fff;fill-rule:nonzero;"/></g><g transform="matrix(51.4286,0,0,51.4286,245.004,74.4184)"><path d="M0.258,-0.127l-0.029,0.127l-0.227,-0l0.181,-0.745l0.32,-0l0.172,0.745l-0.225,-0l-0.029,-0.127l-0.163,0Zm0.04,-0.175l0.083,0l-0.041,-0.182l-0.042,0.182Z" style="fill:#fff;fill-rule:nonzero;"/></g><g transform="matrix(51.4286,0,0,51.4286,277.046,74.4184)"><path d="M0.349,-0l-0.224,-0l-0,-0.444l-0.113,0l0,-0.301l0.45,-0l-0,0.301l-0.113,0l0,0.444Z" style="fill:#fff;fill-rule:nonzero;"/></g><g transform="matrix(51.4286,0,0,51.4286,301.48,74.4184)"><path d="M0.274,-0.187l0.196,-0l0,0.187l-0.42,-0l-0,-0.745l0.42,-0l0,0.187l-0.196,-0l-0,0.092l0.137,0l0,0.187l-0.137,0l-0,0.092Z" style="fill:#fff;fill-rule:nonzero;"/></g><g transform="matrix(72,0,0,72,326.616,74.4184)"><path d="M0.293,-0.691l-0.082,0l-0,0.346l-0.055,-0l-0,-0.346l-0.084,0l-0,-0.054l0.221,-0l-0,0.054Zm0.084,0.346l-0.052,-0l0,-0.4l0.086,-0l0.05,0.276l0.05,-0.276l0.086,-0l0,0.4l-0.053,-0l-0,-0.319l-0.058,0.319l-0.05,-0l-0.059,-0.319l-0,0.319Z" style="fill:#fff;fill-rule:nonzero;"/></g></g><g transform="matrix(2.89117,-1.15557,1.48329,3.7111,2.70562,540.653)"><g transform="matrix(72,0,0,72,47.7418,74.4184)"><path d="M0.05,-0l-0,-0.745l0.216,-0c0.081,-0 0.138,0.005 0.171,0.017c0.034,0.011 0.062,0.037 0.085,0.079c0.023,0.042 0.035,0.092 0.035,0.152c0,0.074 -0.016,0.135 -0.049,0.183c-0.033,0.048 -0.074,0.072 -0.123,0.072c-0.035,-0 -0.072,-0.022 -0.111,-0.065l-0,0.307l-0.224,-0Zm0.228,-0.584l-0.004,0l-0,0.162l0.003,0l0.012,0.001c0.019,0 0.034,-0.007 0.044,-0.022c0.011,-0.015 0.016,-0.036 0.016,-0.063c0,-0.029 -0.005,-0.05 -0.015,-0.061c-0.011,-0.011 -0.029,-0.017 -0.056,-0.017Z" style="fill:#fff;fill-rule:nonzero;"/></g><g transform="matrix(51.4286,0,0,51.4286,88.5583,74.4184)"><path d="M0.05,-0l-0,-0.745l0.224,-0c0.078,-0 0.13,0.002 0.156,0.008c0.027,0.005 0.049,0.017 0.069,0.035c0.02,0.018 0.035,0.044 0.047,0.075c0.012,0.032 0.018,0.066 0.018,0.101c-0,0.075 -0.019,0.131 -0.057,0.169c0.055,0.091 0.088,0.21 0.098,0.357l-0.233,-0l0,-0.007c0,-0.087 -0.008,-0.154 -0.025,-0.2c-0.016,-0.046 -0.04,-0.069 -0.07,-0.069l-0.003,0l-0,0.276l-0.224,-0Zm0.228,-0.592l-0.004,0l-0,0.144l0.006,-0c0.022,-0 0.037,-0.006 0.047,-0.018c0.01,-0.012 0.015,-0.03 0.015,-0.056c-0,-0.047 -0.022,-0.07 -0.064,-0.07Z" style="fill:#fff;fill-rule:nonzero;"/></g><g transform="matrix(51.4286,0,0,51.4286,118.843,74.4184)"><path d="M0.299,-0.758c0.067,0 0.125,0.038 0.176,0.112c0.05,0.075 0.075,0.164 0.075,0.267c-0,0.116 -0.025,0.21 -0.074,0.282c-0.049,0.072 -0.113,0.108 -0.191,0.108c-0.066,0 -0.125,-0.035 -0.177,-0.105c-0.051,-0.07 -0.077,-0.168 -0.077,-0.294c-0,-0.062 0.011,-0.121 0.033,-0.177c0.022,-0.057 0.053,-0.103 0.092,-0.139c0.04,-0.036 0.087,-0.054 0.143,-0.054Zm-0.009,0.287c-0.014,-0 -0.026,0.007 -0.036,0.022c-0.01,0.015 -0.015,0.033 -0.015,0.056c-0,0.023 0.005,0.041 0.014,0.056c0.01,0.015 0.022,0.022 0.037,0.022c0.015,0 0.027,-0.007 0.037,-0.022c0.01,-0.014 0.015,-0.033 0.015,-0.056c-0,-0.023 -0.005,-0.041 -0.015,-0.056c-0.01,-0.015 -0.022,-0.022 -0.037,-0.022Z" style="fill:#fff;fill-rule:nonzero;"/></g><g transform="matrix(51.4286,0,0,51.4286,148.726,74.4184)"><path d="M0.274,-0l-0.224,-0l-0,-0.745l0.421,-0l0,0.187l-0.197,-0l-0,0.135l0.143,0l-0,0.187l-0.143,0l-0,0.236Z" style="fill:#fff;fill-rule:nonzero;"/></g><g transform="matrix(51.4286,0,0,51.4286,173.862,74.4184)"><path d="M0.471,-0l-0.421,-0l-0,-0.745l0.224,-0l-0,0.558l0.197,-0l0,0.187Z" style="fill:#fff;fill-rule:nonzero;"/></g><g transform="matrix(51.4286,0,0,51.4286,198.346,74.4184)"><rect x="0.051" y="-0.745" width="0.224" height="0.745" style="fill:#fff;fill-rule:nonzero;"/></g><g transform="matrix(51.4286,0,0,51.4286,215.121,74.4184)"><path d="M0.549,0.001l-0.003,-0l-0.184,0.008c-0.072,-0 -0.126,-0.009 -0.161,-0.027c-0.035,-0.017 -0.066,-0.046 -0.092,-0.085c-0.027,-0.04 -0.046,-0.083 -0.057,-0.13c-0.011,-0.047 -0.017,-0.095 -0.017,-0.145c0,-0.115 0.026,-0.206 0.079,-0.276c0.052,-0.069 0.12,-0.104 0.205,-0.104c0.039,0 0.081,0.009 0.124,0.027c0.044,0.018 0.083,0.042 0.119,0.074l-0.109,0.224c-0.043,-0.032 -0.083,-0.048 -0.121,-0.048c-0.026,0 -0.046,0.009 -0.062,0.028c-0.016,0.018 -0.024,0.043 -0.024,0.073c0,0.064 0.025,0.096 0.074,0.096l0.005,-0l0,-0.117l0.224,0l-0,0.402Z" style="fill:#fff;fill-rule:nonzero;"/></g><g transform="matrix(51.4286,0,0,51.4286,245.004,74.4184)"><path d="M0.258,-0.127l-0.029,0.127l-0.227,-0l0.181,-0.745l0.32,-0l0.172,0.745l-0.225,-0l-0.029,-0.127l-0.163,0Zm0.04,-0.175l0.083,0l-0.041,-0.182l-0.042,0.182Z" style="fill:#fff;fill-rule:nonzero;"/></g><g transform="matrix(51.4286,0,0,51.4286,277.046,74.4184)"><path d="M0.349,-0l-0.224,-0l-0,-0.444l-0.113,0l0,-0.301l0.45,-0l-0,0.301l-0.113,0l0,0.444Z" style="fill:#fff;fill-rule:nonzero;"/></g><g transform="matrix(51.4286,0,0,51.4286,301.48,74.4184)"><path d="M0.274,-0.187l0.196,-0l0,0.187l-0.42,-0l-0,-0.745l0.42,-0l0,0.187l-0.196,-0l-0,0.092l0.137,0l0,0.187l-0.137,0l-0,0.092Z" style="fill:#fff;fill-rule:nonzero;"/></g><g transform="matrix(72,0,0,72,326.616,74.4184)"><path d="M0.293,-0.691l-0.082,0l-0,0.346l-0.055,-0l-0,-0.346l-0.084,0l-0,-0.054l0.221,-0l-0,0.054Zm0.084,0.346l-0.052,-0l0,-0.4l0.086,-0l0.05,0.276l0.05,-0.276l0.086,-0l0,0.4l-0.053,-0l-0,-0.319l-0.058,0.319l-0.05,-0l-0.059,-0.319l-0,0.319Z" style="fill:#fff;fill-rule:nonzero;"/></g></g></g></svg>